<?xml version="1.0" encoding="UTF-8"?>
<svg xmlns="http://www.w3.org/2000/svg" xmlns:xlink="http://www.w3.org/1999/xlink" width="16px" height="16px" viewBox="0 0 16 16" version="1.1">
<g id="surface1">
<path style=" stroke:none;fill-rule:nonzero;fill:currentColor;fill-opacity:1;" d="M 3.300781 4.730469 C 3.300781 4.960938 3.359375 5.355469 3.4375 5.539062 C 3.558594 5.921875 4.257812 6.652344 4.671875 6.652344 C 4.945312 6.652344 5.296875 6.390625 5.644531 6.316406 C 6.726562 6.101562 10.691406 5.644531 11.34375 5.644531 C 11.464844 5.644531 11.511719 5.691406 11.496094 5.8125 C 11.4375 6.683594 11.117188 9.027344 10.855469 10.855469 C 9.179688 10.980469 5.144531 11.40625 4.546875 11.40625 C 3.953125 11.40625 3.574219 10.902344 3.238281 10.507812 L 2.949219 10.675781 C 2.964844 10.855469 3.070312 11.300781 3.207031 11.542969 C 3.40625 11.9375 4.078125 12.546875 4.503906 12.546875 C 4.839844 12.546875 5.035156 12.335938 5.84375 12.183594 C 6.742188 12 8.554688 11.769531 9.851562 11.769531 C 10.996094 11.769531 11.648438 11.910156 12.105469 11.910156 C 12.535156 11.910156 12.699219 11.816406 12.699219 11.574219 C 12.699219 11.253906 12.289062 10.933594 11.785156 10.855469 C 12.105469 9.089844 12.425781 7.199219 12.578125 6.53125 C 12.671875 6.117188 13.050781 5.980469 13.050781 5.660156 C 13.050781 5.28125 12.03125 4.5625 11.632812 4.5625 C 11.34375 4.5625 11.238281 4.867188 10.703125 4.929688 C 9.761719 5.050781 5.460938 5.476562 4.6875 5.476562 C 4.152344 5.476562 3.910156 4.992188 3.605469 4.625 Z M 3.300781 4.730469 "/>
</g>
</svg>
