<?xml version="1.0" encoding="UTF-8"?>
<svg xmlns="http://www.w3.org/2000/svg" xmlns:xlink="http://www.w3.org/1999/xlink" width="24px" height="24px" viewBox="0 0 24 24" version="1.1">
<g id="surface1">
<path style=" stroke:none;fill-rule:nonzero;fill:rgb(0%,0%,0%);fill-opacity:1;" d="M 4.949219 7.097656 C 4.949219 7.441406 5.039062 8.035156 5.15625 8.308594 C 5.335938 8.878906 6.386719 9.976562 7.003906 9.976562 C 7.417969 9.976562 7.941406 9.589844 8.46875 9.472656 C 10.089844 9.15625 16.035156 8.46875 17.015625 8.46875 C 17.199219 8.46875 17.269531 8.539062 17.246094 8.71875 C 17.152344 10.023438 16.675781 13.542969 16.285156 16.285156 C 13.769531 16.46875 7.714844 17.109375 6.824219 17.109375 C 5.929688 17.109375 5.359375 16.355469 4.855469 15.761719 L 4.421875 16.011719 C 4.445312 16.285156 4.605469 16.949219 4.8125 17.3125 C 5.109375 17.910156 6.113281 18.824219 6.753906 18.824219 C 7.257812 18.824219 7.554688 18.503906 8.765625 18.273438 C 10.113281 18 12.835938 17.65625 14.777344 17.65625 C 16.492188 17.65625 17.472656 17.863281 18.160156 17.863281 C 18.800781 17.863281 19.050781 17.726562 19.050781 17.359375 C 19.050781 16.878906 18.433594 16.398438 17.679688 16.285156 C 18.160156 13.632812 18.640625 10.800781 18.867188 9.792969 C 19.003906 9.175781 19.578125 8.972656 19.578125 8.492188 C 19.578125 7.921875 18.046875 6.847656 17.453125 6.847656 C 17.015625 6.847656 16.855469 7.304688 16.058594 7.394531 C 14.640625 7.578125 8.195312 8.21875 7.027344 8.21875 C 6.230469 8.21875 5.863281 7.484375 5.40625 6.9375 Z M 4.949219 7.097656 "/>
</g>
</svg>
